<?xml version="1.0" ?><svg enable-background="new 0 0 24 24" id="Layer_1" version="1.1" viewBox="0 0 24 24" xml:space="preserve" xmlns="http://www.w3.org/2000/svg" xmlns:xlink="http://www.w3.org/1999/xlink"><g><path d="M12,0C5.3828125,0,0,5.3833008,0,12s5.3828125,12,12,12s12-5.3833008,12-12S18.6171875,0,12,0z" fill="#303C42"/><path d="M12,23C5.9345703,23,1,18.0654297,1,12S5.9345703,1,12,1s11,4.9345703,11,11S18.0654297,23,12,23z" fill="#E53A35"/><path d="M19.2507324,3.7492676C20.9562378,5.687561,22,8.2213745,22,11   c0,6.0654297-4.9345703,11-11,11c-2.7786255,0-5.312439-1.0437622-7.2507324-2.7492676C5.7666626,21.543457,8.7131958,23,12,23   c6.0654297,0,11-4.9345703,11-11C23,8.7131958,21.543457,5.7666626,19.2507324,3.7492676z" fill="#010101" opacity="0.1"/><path d="M14.9990234,14h-6c-1.6542969,0-3,1.3457031-3,3s1.3457031,3,3,3h6c1.6542969,0,3-1.3457031,3-3   S16.6533203,14,14.9990234,14z" fill="#303C42"/><path d="M8.9990234,15h6c0.8479614,0,1.5699463,0.5325928,1.8603516,1.2794189l-1.1962891,0.6512451   l-1.5976563-0.8696289c-0.1503906-0.0810547-0.3300781-0.0810547-0.4785156,0l-1.5947266,0.8691406l-1.5898438-0.8691406   c-0.1494141-0.0805664-0.3300781-0.081543-0.4794922,0l-1.5927734,0.8691406L7.1386719,16.279541   C7.4290161,15.5327148,8.151062,15,8.9990234,15z" fill="#FFFFFF"/><path d="M9.2868042,15.5299683h6c0.6320801,0,1.1930542,0.2970581,1.5585938,0.7570801   l0.0139771-0.0076294C16.5689697,15.5325928,15.8469849,15,14.9990234,15h-6c-0.8479614,0-1.5700073,0.5327148-1.8603516,1.279541   l0.4500122,0.2457275C7.9366455,15.9376221,8.5558472,15.5299683,9.2868042,15.5299683z" fill="#010101" opacity="0.1"/><path d="M14.9990234,19h-6c-0.9783936,0-1.7918091-0.7075195-1.9633179-1.6373901l1.0551147,0.576355   c0.1484375,0.0810547,0.3300781,0.0810547,0.4785156,0l1.5927734-0.8691406l1.5898438,0.8691406   c0.1494141,0.0805664,0.3300781,0.081543,0.4794922,0l1.5947266-0.8696289l1.5976563,0.8696289   C15.4990234,17.9794922,15.5810547,18,15.6630859,18s0.1650391-0.0205078,0.2392578-0.0610352l1.0601196-0.5771484   C16.7912598,18.2921143,15.9777222,19,14.9990234,19z" fill="#FFFFFF"/><path d="M18.9472656,7.2763672c-0.1240234-0.2475586-0.4228516-0.3466797-0.6708984-0.2236328l-4.0009766,2   C14.1064453,9.137207,13.9990234,9.3105469,13.9990234,9.5s0.1074219,0.362793,0.2763672,0.4472656l4.0009766,2   C18.3486328,11.9829102,18.4248047,12,18.5,12c0.1826172,0,0.359375-0.1010742,0.4472656-0.2763672   c0.1230469-0.2470703,0.0234375-0.5473633-0.2236328-0.6708984L15.6171875,9.5l3.1064453-1.5527344   C18.9707031,7.8237305,19.0703125,7.5234375,18.9472656,7.2763672z" fill="#303C42"/><path d="M10.0009766,9.5c0-0.1894531-0.1074219-0.362793-0.2763672-0.4472656l-4.0009766-2   c-0.2460938-0.1220703-0.546875-0.0229492-0.6708984,0.2236328C4.9296875,7.5234375,5.0292969,7.8237305,5.2763672,7.9472656   L8.3828125,9.5l-3.1064453,1.5527344c-0.2470703,0.1235352-0.3466797,0.4238281-0.2236328,0.6708984   C5.140625,11.8989258,5.3173828,12,5.5,12c0.0751953,0,0.1513672-0.0170898,0.2236328-0.0527344l4.0009766-2   C9.8935547,9.862793,10.0009766,9.6894531,10.0009766,9.5z" fill="#303C42"/><linearGradient gradientUnits="userSpaceOnUse" id="SVGID_1_" x1="1.1248534" x2="22.8751469" y1="6.9288359" y2="17.0711651"><stop offset="0" style="stop-color:#FFFFFF;stop-opacity:0.2"/><stop offset="1" style="stop-color:#FFFFFF;stop-opacity:0"/></linearGradient><path d="M12,0C5.3828125,0,0,5.3833008,0,12s5.3828125,12,12,12s12-5.3833008,12-12S18.6171875,0,12,0z" fill="url(#SVGID_1_)"/></g><g/><g/><g/><g/><g/><g/><g/><g/><g/><g/><g/><g/><g/><g/><g/></svg>