<?xml version="1.0" ?><svg enable-background="new 0 0 24 24" id="Layer_1" version="1.1" viewBox="0 0 24 24" xml:space="preserve" xmlns="http://www.w3.org/2000/svg" xmlns:xlink="http://www.w3.org/1999/xlink"><g><path d="M12,0C5.3833008,0,0,5.3828125,0,12s5.3833008,12,12,12s12-5.3828125,12-12S18.6166992,0,12,0z" fill="#303C42"/><path d="M12,23C5.9345703,23,1,18.0654297,1,12S5.9345703,1,12,1s11,4.9345703,11,11S18.0654297,23,12,23z" fill="#FED600"/><path d="M19.2507324,3.7492676C20.9562378,5.687561,22,8.2213745,22,11   c0,6.0654297-4.9345703,11-11,11c-2.7786255,0-5.312439-1.0437622-7.2507324-2.7492676C5.7666626,21.543457,8.7131958,23,12,23   c6.0654297,0,11-4.9345703,11-11C23,8.7131958,21.543457,5.7666626,19.2507324,3.7492676z" fill="#010101" opacity="0.1"/><path d="M5.5004883,9c0.0751953,0,0.1513672-0.0166016,0.2231445-0.0527344l4-2   c0.2470703-0.1240234,0.347168-0.4238281,0.2236328-0.6708984S9.5224609,5.9277344,9.2763672,6.0527344l-4,2   c-0.2470703,0.1240234-0.347168,0.4238281-0.2236328,0.6708984C5.140625,8.8984375,5.3168945,9,5.5004883,9z" fill="#303C42"/><path d="M18.7236328,8.0527344l-4-2c-0.2470703-0.125-0.5473633-0.0234375-0.6708984,0.2236328   s-0.0234375,0.546875,0.2236328,0.6708984l4,2C18.3481445,8.9833984,18.4243164,9,18.4995117,9   c0.1835938,0,0.3598633-0.1015625,0.4477539-0.2763672C19.0708008,8.4765625,18.9707031,8.1767578,18.7236328,8.0527344z" fill="#303C42"/><path d="M12,13c-3.3076172,0-6.2460938,2.2646484-6.9863281,5.3847656   c-0.0356445,0.1484375-0.0009766,0.3056641,0.0942383,0.4248047C5.2026367,18.9296875,5.347168,19,5.5,19h2.8399048   C8.9351807,20.2331543,10.2827759,21,12,21c1.7177124,0,3.0651245-0.7672119,3.6600952-2H18.5   c0.152832,0,0.2973633-0.0703125,0.3920898-0.1894531c0.0947266-0.1201172,0.1298828-0.2763672,0.0947266-0.4257813   C18.2495117,15.2646484,15.3115234,13,12,13z" fill="#303C42"/><path d="M12,20c-1.2402344,0-2.6665039-0.5185547-2.9511719-1.9736328   c-0.0375977-0.1923828,0.0283203-0.390625,0.1674805-0.5039063C9.6523438,17.1660156,10.0600586,17,10.5,17   c0.3438721,0,0.6766357,0.0950928,1,0.2418213V18c0,0.2763672,0.2236328,0.5,0.5,0.5s0.5-0.2236328,0.5-0.5v-0.7789917   c0.7373657-0.3430786,1.5236816-0.3295898,2.2856445,0.2994995h0.0004883   c0.1376953,0.1142578,0.2026367,0.3115234,0.1655273,0.5029297C14.668457,19.4804688,13.2412109,20,12,20z" fill="#E53A35"/><path d="M9.2163086,18.0224609C9.6523438,17.6660156,10.0600586,17.5,10.5,17.5   c0.3438721,0,0.6766357,0.0950928,1,0.2418213v-0.5C11.1766357,17.0950928,10.8438721,17,10.5,17   c-0.4399414,0-0.8476563,0.1660156-1.2836914,0.5224609c-0.1391602,0.1132813-0.2050781,0.3115234-0.1674805,0.5039063   c0.0117798,0.0603638,0.0366821,0.1096191,0.0523071,0.166748C9.1312866,18.1296997,9.1629028,18.065918,9.2163086,18.0224609z" fill="#FFFFFF" opacity="0.2"/><path d="M14.7856445,18.0205078h0.0004883   c0.0526123,0.0436401,0.0836182,0.1071167,0.1133423,0.1700439c0.015625-0.057251,0.0404053-0.1066284,0.0521851-0.1671143   c0.0371094-0.1914063-0.027832-0.3886719-0.1655273-0.5029297h-0.0004883   C14.0236816,16.8914185,13.2373657,16.8779297,12.5,17.2210083v0.5   C13.2373657,17.3779297,14.0236816,17.3914185,14.7856445,18.0205078z" fill="#FFFFFF" opacity="0.2"/><path d="M15.946167,18c0.0264282-0.4818115-0.1559448-0.9475098-0.5252686-1.2509766   c-1.0761719-0.8867188-2.3144531-0.9375-3.4208984-0.3994141c-1.0996094-0.5341797-2.3266602-0.4931641-3.4169922,0.3984375   C8.2125854,17.0518799,8.0286255,17.5175171,8.0542603,18H6.171875C7.0239258,15.6806641,9.4194336,14,12,14   c2.6289063,0,4.9829102,1.6484375,5.8305664,4H15.946167z" fill="#B72025"/><path d="M12.5154419,14.5153809c1.5683594,0,3.0308228,0.5958252,4.1420288,1.5684814   C15.5092773,14.8081665,13.8275757,14,12,14c-2.5805664,0-4.9760742,1.6806641-5.828125,4h0.7548828   C7.9250488,15.9553833,10.1333008,14.5153809,12.5154419,14.5153809z" fill="#010101" opacity="0.1"/><linearGradient gradientUnits="userSpaceOnUse" id="SVGID_1_" x1="1.1248375" x2="22.8751621" y1="6.9288282" y2="17.0711708"><stop offset="0" style="stop-color:#FFFFFF;stop-opacity:0.2"/><stop offset="1" style="stop-color:#FFFFFF;stop-opacity:0"/></linearGradient><path d="M12,0C5.3833008,0,0,5.3828125,0,12s5.3833008,12,12,12s12-5.3828125,12-12S18.6166992,0,12,0z" fill="url(#SVGID_1_)"/></g><g/><g/><g/><g/><g/><g/><g/><g/><g/><g/><g/><g/><g/><g/><g/></svg>